# xmcd
#
# Track frame offsets: 
#        192
#        13522
#        23415
#        31587
#        41837
#        51965
#        61675
#        71935
#        85127
#        95382
#        103807
#        116322
#        127177
#        136510
#        145260
#        153730
#
# Disc length: 2263 seconds
#
# Revision: 12
# Processed by: cddbd v1.5.2PL0 Copyright (c) Steve Scherf et al.
# Submitted via: ExactAudioCopyFreeDBPlugin 1.0
#
DISCID=cf08d510
DTITLE=Various Artist - Ultimate Country Box Disc 6
DYEAR=1999
DGENRE=Country
TTITLE0=Unknown Artist - The Good, the Bad and the Ugly (Instrumental)
TTITLE1=Unknown Artist - Ghost Riders in the Sky (Instrumental)
TTITLE2=Unknown Artist - A Fist Full of Dollars (Instrumental)
TTITLE3=Unknown Artist - The Man Who Shot Liberty Valance (Instrumenta
TTITLE3=l)
TTITLE4=Unknown Artist - The Hanging Tree (Instrumental)
TTITLE5=Unknown Artist - Streets of Laredo (Instrumental)
TTITLE6=Unknown Artist - Hang 'Em High (Instrumental)
TTITLE7=Unknown Artist - High Noon (Instrumental)
TTITLE8=Unknown Artist - High Chaparral (Instrumental)
TTITLE9=Unknown Artist - Bonanza (Instrumental)
TTITLE10=Unknown Artist - For a Few Dollars More (Instrumental)
TTITLE11=Unknown Artist - The Big Country (Instrumental)
TTITLE12=Unknown Artist - The Magnificent Seven (Instrumental)
TTITLE13=Unknown Artist - Shenandoah (Instrumental)
TTITLE14=Unknown Artist - Red River Valley (Instrumental)
TTITLE15=Unknown Artist - Once Upon a Time in the West (Instrumental)
EXTD=Cat: STELCD0137. Possible downmarket version of cat SAN0013?
EXTT0=
EXTT1=
EXTT2=
EXTT3=
EXTT4=
EXTT5=
EXTT6=
EXTT7=
EXTT8=
EXTT9=
EXTT10=
EXTT11=
EXTT12=
EXTT13=
EXTT14=
EXTT15=
PLAYORDER=
